<svg version="1.1" xmlns="http://www.w3.org/2000/svg" xmlns:xlink="http://www.w3.org/1999/xlink" x="0px" y="0px" viewBox="0 0 1000 1000" enable-background="new 0 0 1000 1000" xml:space="preserve">
<g><path d="M832.7,863.4c6,8.2,10.3,17.7,10.3,28.6c0,27-22,49-49,49c-22.5,0-40.6-15.5-46.4-36.1c-15.3,5.8-31,11-47,15.4c12.2,40.2,49.1,69.6,93.4,69.6c54.1,0,98-43.9,98-98c0-21.1-6.8-40.6-18.2-56.5C860.7,845.4,847,854.8,832.7,863.4L832.7,863.4z" style="fill:#666666"></path><path d="M304,941c-27,0-49-22-49-49c0-11,4.3-20.6,10.5-28.9c-14.3-8.6-28.5-17.4-41.6-27.3C212.7,851.8,206,871.1,206,892c0,54.1,43.8,98,98,98c44.4,0,81.3-29.7,93.5-70c-16-4.4-31.8-9.4-47.1-15.2C344.7,925.4,326.5,941,304,941L304,941z" style="fill:#666666"></path><path d="M745,59c54,0,98,44,98,98c0,11-2.3,21.6-5.7,31.4c14.4,9,28.3,18.6,41.4,28.8c8.4-18.4,13.3-38.6,13.3-60.2c0-81.2-65.9-147-147-147c-65.1,0-119.6,42.5-139,101.1c16.7,1.6,33,4,49.1,7C670.3,83.4,704.8,59,745,59L745,59z" style="fill:#666666"></path><path d="M990,524.5C990,321.8,792.2,157,549,157c-44.3,0-88.5,5.7-131.5,16.9l-157.3-16.7c-1.7-0.2-3.4-0.3-5.2-0.3c-12.1,0-23.7,4.4-32.8,12.5c-10.3,9.3-16.2,22.6-16.2,36.5v88c-31.4,32.5-55.9,69.1-72.5,108H59c-27,0-49,22-49,49v147c0,27,22,49,49,49h74.4C194.8,793,359.9,892,549,892C792.2,892,990,727.2,990,524.5L990,524.5z M549,843c-185.3,0-340.2-104.7-381.1-245H59V451h108.9c15-51.5,45.5-98,87.1-136.5V206l166.5,17.6C461.5,212.4,504.3,206,549,206c216.5,0,392,142.6,392,318.5C941,700.4,765.5,843,549,843L549,843z" style="fill:#666666"></path><path d="M255,402c0,12.8,5.3,25.6,14.4,34.6c9.1,9.1,21.8,14.4,34.6,14.4c12.8,0,25.6-5.3,34.7-14.4c9.1-9.1,14.4-21.8,14.4-34.6c0-12.8-5.3-25.6-14.4-34.6c-9.1-9.1-21.8-14.4-34.7-14.4c-12.8,0-25.6,5.3-34.6,14.4C260.3,376.4,255,389.2,255,402L255,402z" style="fill:#666666"></path><path d="M521.7,665.5l-75.3-238h61.2l44.6,156l41-156h60.7l39.7,156l45.5-156h62.1l-76.4,238h-60.5l-41-153.1l-40.3,153.1H521.7z" style="fill:#666666"></path></g></svg>