<svg version="1.1" xmlns="http://www.w3.org/2000/svg" xmlns:xlink="http://www.w3.org/1999/xlink" x="0px" y="0px" viewBox="0 0 1000 1000" enable-background="new 0 0 1000 1000" xml:space="preserve">
<g><g transform="translate(0.000000,512.000000) scale(0.100000,-0.100000)"><path d="M1846.5,4994.1c-26.8-13.4-63.1-55.5-82.3-93.7c-32.5-67-32.5-109-13.4-726.9c49.7-1637.5,164.5-2764.2,338.6-3311.3c126.3-399.8,428.5-912.5,792-1342.9c86.1-99.5,174.1-187.5,197-193.2c23-5.7,82.3-74.6,143.5-170.2c269.7-420.8,637-740.3,1048.3-918.2c732.7-317.6,1539.9-141.6,2150.1,468.7c151.1,151.1,357.7,415.1,420.8,539.5c21.1,40.2,49.8,72.7,65.1,72.7c44,0,200.9,170.2,392.1,424.7c286.9,378.8,524.2,809.2,619.8,1126.7c174.1,579.6,288.8,1704.4,336.7,3313.2c15.3,549,15.3,658.1-9.6,713.5c-53.6,128.2-248.7,160.7-332.9,53.6c-21-26.8-47.8-97.6-59.3-156.9c-45.9-233.4-122.4-522.2-200.9-761.4c-82.2-242.9-242.9-631.3-277.4-665.7c-9.6-9.6-42.1,38.3-76.5,114.8c-110.9,244.9-298.4,499.3-552.9,753.7c-344.3,342.4-642.7,533.7-1048.3,669.5c-749.9,250.6-1583.9,72.7-2238.1-476.3c-302.2-252.5-568.1-581.5-725-897.2c-51.6-101.4-97.6-170.3-107.1-160.7c-34.4,34.4-223.8,501.2-298.4,734.6c-42.1,132-99.5,342.4-126.3,468.7c-72.7,329-84.2,363.5-139.6,405.5C2007.2,5024.7,1917.3,5030.4,1846.5,4994.1z M5458.1,4548.4c231.5-57.4,528-200.9,725-350.1c415.1-311.8,774.7-820.7,851.3-1201.3l21-109l-97.5-89.9c-162.6-149.2-300.3-206.6-554.8-227.6c-118.6-11.5-262.1-34.4-317.6-53.6c-497.3-168.3-811.1-713.5-868.5-1507.4c-11.5-170.2-17.2-189.4-63.1-221.9c-78.4-57.4-187.5-65-281.2-17.2l-80.3,40.2V931c0,464.9-189.4,1027.3-436.1,1295.1c-202.8,220-407.5,313.7-753.7,344.3c-254.4,21-392.2,78.4-554.8,227.6l-97.6,89.9l21,109c76.5,382.6,440,895.3,853.2,1203.2c277.4,206.6,658.1,363.5,966,396C4995.2,4619.1,5259.2,4600,5458.1,4548.4z M3874.2,1728.7c474.4-237.2,516.5-267.8,516.5-382.6c0-70.8-57.4-154.9-124.3-183.6c-95.6-38.3-489.7-36.3-573.9,3.8c-68.9,32.5-124.3,124.3-124.3,206.6c0,42.1-23,59.3-172.2,137.7c-183.6,93.7-229.6,145.4-229.6,252.5c0,97.6,97.6,191.3,206.6,193.2C3396,1958.2,3621.7,1854.9,3874.2,1728.7z M6760.9,1908.5c74.6-61.2,95.7-158.8,53.6-248.7c-24.9-51.6-65.1-80.3-214.3-151.1c-166.4-80.3-181.7-91.8-170.3-133.9c17.2-67-42.1-174.1-116.7-208.5c-84.2-40.2-478.2-42.1-573.9-3.8c-67,28.7-124.3,112.9-124.3,183.6c0,114.8,42.1,145.4,512.7,382.6c283.1,141.6,476.3,227.6,514.6,227.6C6680.5,1958.2,6724.5,1941,6760.9,1908.5z M4578.2,471.9c244.9-185.6,604.5-185.6,849.4,1.9l68.9,51.7l438.1-5.7c422.8-5.7,438-7.7,499.3-49.7c114.8-84.2,212.3-353.9,214.2-593c0-195.1-199-543.3-478.2-834.1c-189.4-197-338.6-308-537.6-403.6c-497.4-235.3-1054-179.8-1516.9,151.1c-367.3,264-757.5,820.7-757.5,1082.7c1.9,302.2,124.3,575.8,286.9,637c15.3,5.7,218.1,11.5,447.6,11.5l418.9,1.9L4578.2,471.9z" style="fill:#ea8010"></path><path d="M4511.2-308.6C4377.3-366,4356.3-563,4473-651c51.7-38.3,82.3-40.2,487.8-45.9c491.6-7.7,558.6,3.8,616,97.6c45.9,74.6,47.8,130.1,7.6,206.6c-51.6,101.4-112.9,112.9-585.4,112.9C4675.8-281.8,4557.2-287.5,4511.2-308.6z" style="fill:#ea8010"></path><path d="M1611.2-1657.2c-736.5-145.4-1362-275.5-1392.6-288.9c-70.8-28.7-118.6-116.7-109-197c11.5-88,1675.7-2576.7,1744.6-2609.2c80.3-36.4,2155.9-32.5,2228.6,3.8c59.3,30.6,97.6,103.3,97.6,179.8c0,28.7-223.8,732.7-497.4,1562.9c-443.8,1354.4-503.1,1517-554.8,1564.8c-40.2,34.4-76.5,51.7-120.5,49.7C2975.1-1393.2,2345.8-1511.8,1611.2-1657.2z" style="fill:#ea8010"></path><path d="M6877.6-1441.1c-51.7-47.8-109-208.5-554.8-1564.8c-273.5-830.2-497.4-1534.2-497.4-1562.9c0-76.5,38.3-149.2,97.6-179.8c72.7-36.4,2148.2-40.2,2228.6-3.8c65,30.6,1731.2,2519.3,1744.6,2605.4c11.5,70.8-42.1,172.2-103.3,200.9c-51.7,23-2748.9,556.7-2815.9,556.7C6954.1-1389.4,6910.1-1412.4,6877.6-1441.1z" style="fill:#ea8010"></path><path d="M4036.8-2181.4c-32.5-13.4-68.9-38.3-82.3-55.5c-65-78.4-53.6-130.1,290.8-1176.5c185.6-560.5,336.7-1046.4,336.7-1080.8c0-116.7,36.3-204.7,101.4-242.9c51.7-32.5,97.6-38.3,315.6-38.3c290.8,0,353.9,19.1,397.9,124.3c15.3,36.4,26.8,99.5,26.8,139.6c0,44,135.8,485.9,336.7,1096.1c361.5,1101.9,365.4,1113.3,265.9,1197.5c-80.4,68.9-126.3,70.8-323.3,7.6c-474.4-153-924-153-1396.5-1.9C4103.8-2146.9,4113.3-2146.9,4036.8-2181.4z" style="fill:#ea8010"></path><path d="M297-3528.1c-36.3-17.2-78.4-55.5-91.8-84.2c-49.7-107.1-82.3-340.5-93.7-679.1L100-4639.5l68.9-68.9l67-67h386.4c244.9,0,399.8,7.7,426.6,21c70.8,36.3,109,99.5,109,179.8c0,67-38.3,133.9-317.5,550.9c-262.1,394.1-327.1,480.2-380.7,503.1C377.4-3486,377.4-3486,297-3528.1z" style="fill:#ea8010"></path><path d="M9542.3-3520.4c-47.8-22.9-128.2-130.1-376.9-503.1c-279.3-417-317.5-484-317.5-550.9c0-80.4,38.2-143.5,109-179.8c26.8-13.4,181.7-21,426.6-21h386.4l65,65l65,65v264c0,264-32.5,550.9-80.4,713.5C9779.5-3533.8,9659-3470.7,9542.3-3520.4z" style="fill:#ea8010"></path></g></g></svg>